<?xml version="1.0" encoding="UTF-8" standalone="no"?>
<!-- Created with Inkscape (http://www.inkscape.org/) -->

<svg width="512" height="512" viewBox="0 0 512 512" version="1.1" id="svg1" xmlns="http://www.w3.org/2000/svg" xmlns:svg="http://www.w3.org/2000/svg">
  <defs id="defs1" />
  <g id="g11" style="display:inline">
    <path style="font-size:307.312px;line-height:1.25;font-family:'Berlin Sans FB';-inkscape-font-specification:'Berlin Sans FB';stroke-width:7.68282" d="m 198.75551,59.837509 q 0,3.901422 -2.70098,3.901422 -4.20153,0 -53.11936,-1.800657 -1.35049,45.766686 -1.35049,73.376746 0,17.25629 1.20043,51.76887 1.3505,34.51258 1.3505,51.76887 0,3.15115 -4.35159,3.15115 -2.70099,0 -8.25301,-0.45017 -5.55202,-0.45016 -8.40306,-0.45016 -2.70099,0 -8.25301,0.45016 -5.55202,0.45017 -8.25301,0.45017 -3.75137,0 -3.75137,-3.75137 0,-17.10624 1.3505,-51.31871 1.50054,-34.36252 1.50054,-51.61881 0,-26.70974 -1.6506,-73.376746 -38.714109,2.400875 -56.720672,2.400875 -1.800656,0 -1.800656,-1.500546 0,-2.700985 1.350492,-7.802845 1.650602,-6.602406 1.950711,-7.802844 0.30011,-5.251914 2.100766,-14.555305 0.750273,-1.950711 2.55093,-1.950711 l 1.800656,0.150055 q 53.119363,3.151148 70.075543,3.151148 15.00547,0 49.06788,-2.25082 23.25848,-1.500547 19.35706,-1.500547 3.90142,0 4.35158,2.700985 -0.3001,-1.650602 -0.3001,14.555305 0,1.950711 0.45016,6.152242 0.45016,4.051477 0.45016,6.152243 z m 267.69758,48.467661 q 0,1.20044 -30.01094,64.22341 -10.05366,21.90799 -30.76121,65.42385 -1.95071,4.05148 -4.05147,4.05148 h -27.00985 q -2.85104,0 -4.65169,-4.05148 -11.10405,-26.10952 -31.96165,-82.22997 -10.35378,27.61006 -32.26176,82.22997 -1.65061,4.05148 -4.50164,4.05148 h -26.85979 q -2.25082,0 -4.20154,-4.05148 -10.35377,-21.75793 -31.06132,-65.42385 -28.66044,-59.72176 -28.66044,-64.22341 0,-12.30448 0.75027,-37.063505 0.75027,-24.759024 0.75027,-37.063509 0,-2.700984 3.75137,-2.700984 2.70098,0 8.10295,0.450164 5.55203,0.450164 8.25301,0.450164 2.55093,0 7.65279,-0.30011 5.10186,-0.300109 7.65279,-0.300109 3.15115,0 3.15115,2.25082 0,12.154431 -1.50055,36.7634 -1.35049,24.458915 -1.35049,36.613349 0,7.65279 30.31105,69.32526 10.05366,20.40744 10.95399,20.40744 0.30011,-0.15005 0.75027,-1.05038 1.80066,-3.45126 7.65279,-19.207 10.80394,-29.26067 22.2081,-66.47423 0.45016,-3.75137 0.45016,-23.708641 0,-8.853227 -0.60022,-26.409626 -0.45016,-17.706454 -0.45016,-26.559681 0,-2.25082 3.15115,-2.25082 2.85104,0 8.55312,0.450164 5.70207,0.450164 8.70317,0.450164 2.55093,0 7.65279,-0.450164 5.10186,-0.450164 7.65279,-0.450164 3.45125,0 3.45125,2.400875 0,9.453445 -0.60021,28.510391 -0.60022,18.906892 -0.60022,28.360337 0,15.455635 0.15005,18.756835 0.45017,7.50274 22.65826,65.87401 2.40088,6.60241 7.80284,18.90689 0.15006,0.60022 0.60022,1.05039 0.90033,0 10.65389,-19.95728 29.56077,-60.47204 29.56077,-68.27488 0,-12.304488 -1.35049,-36.763403 -1.35049,-24.458915 -1.35049,-36.613345 0,-2.25082 1.20043,-2.25082 3.0011,0 8.85323,0.450164 6.00219,0.450164 9.00328,0.450164 2.70099,0 8.25301,-0.450164 5.55202,-0.450164 8.40306,-0.450164 3.15115,0 3.60132,1.800656 0,-0.150055 0,4.201531 0,11.854321 0.75027,35.412908 0.75027,23.558587 0.75027,35.412903 z" id="text11" aria-label="TW" />
    <path id="path11" style="display:inline;fill:black;fill-rule:nonzero;stroke:none;stroke-width:20;stroke-linecap:round;stroke-linejoin:miter;stroke-dasharray:none;stroke-opacity:1" d="m 128,276.66016 c -12.84403,-0.0473 -26.36064,2.36798 -39.587891,7.33007 -12.310583,4.61822 -24.431822,11.47668 -35.152343,20.54883 -10.198246,8.63019 -19.226684,19.35822 -25.628907,31.99219 -6.208206,12.2511 -9.889636,26.20411 -9.703125,41.375 0.182475,16.85127 3.902054,31.81166 10.566407,44.70117 6.576229,12.71906 15.791742,22.98586 26.505859,30.94336 10.658213,7.91598 22.728696,13.49949 35.128906,17.06055 12.493644,3.58788 25.428374,5.1553 37.871094,4.96484 16.40933,-0.19417 31.81312,-4.13544 45.78125,-10.125 14.34636,-6.15174 27.36624,-14.54117 38.73242,-23.59375 11.85642,-9.44304 22.15774,-19.80006 30.63867,-29.63672 9.00545,-10.44501 16.17835,-20.55345 21.39063,-29.11328 4.81864,-7.91337 11.12487,-17.27567 18.91992,-26.75195 7.36545,-8.95403 16.16725,-18.13895 26.40625,-26.30078 9.82971,-7.83556 20.99217,-14.73605 33.50586,-19.58203 12.14472,-4.7031 25.65425,-7.50994 40.62891,-7.31641 10.08609,0.1913 20.50583,2.13578 30.44531,5.76367 9.86887,3.60212 19.07541,8.79474 26.89062,15.35156 7.82474,6.56482 14.14057,14.39532 18.45508,23.26368 4.34764,8.93645 6.73554,19.06434 6.55469,30.37109 -0.18457,11.53907 -3.0478,21.46194 -7.52344,29.875 -4.65228,8.74512 -11.19209,16.13086 -18.80664,22.11914 -8.01809,6.30564 -17.1705,11.01998 -26.53515,14.18359 -10.04857,3.39466 -20.143,4.94682 -29.4629,4.9961 -9.68684,0.0231 -18.09867,-1.34897 -25.39257,-3.31446 -8.52149,-2.29628 -16.00718,-5.54253 -22.41211,-8.78515 -11.13019,-5.63488 -19.62162,-11.37882 -25.85938,-14.67188 -10.11051,-5.33757 -17.95639,-5.42864 -21.5,-6.61523 1.03427,3.08873 1.26445,11.9615 8.25586,21.59961 4.21705,5.81347 12.74064,14.9107 25.2461,23.1875 7.3815,4.88549 16.69919,9.83787 27.91015,13.4082 9.65801,3.07576 20.86804,5.17632 33.69336,5.26367 a 0.04269928,7.0686184e-5 0.17319456 0 0 0.041,0 c 12.63582,0.0473 26.03443,-2.05782 39.23632,-6.64062 12.2892,-4.26598 24.49214,-10.72459 35.31446,-19.58399 10.31036,-8.44029 19.42575,-19.1204 25.86328,-32.04882 6.2425,-12.53676 9.8447,-26.95788 9.6582,-42.97266 -0.18265,-15.68389 -3.99488,-29.95828 -10.62695,-42.47461 -6.53299,-12.32933 -15.64603,-22.6629 -26.21484,-30.9043 -10.53376,-8.21405 -22.52364,-14.36226 -34.95899,-18.41406 -12.53052,-4.08281 -25.59273,-6.06557 -38.27148,-5.875 -18.11063,0.19445 -34.36623,4.00954 -48.77149,9.98242 -14.77779,6.12736 -27.60462,14.52155 -38.56836,23.61914 -11.41483,9.47192 -21.03228,19.88989 -28.93359,29.75196 -8.36946,10.44638 -15.11538,20.65086 -20.26953,29.11523 -4.61138,7.573 -11.1817,16.70506 -19.57227,26.19336 -7.89999,8.93354 -17.42751,18.19196 -28.2539,26.48242 -10.39779,7.96225 -21.93508,14.98646 -34.23438,19.91407 -11.94955,4.78747 -24.51238,7.5552 -37.40039,7.36132 -10.31911,-0.19133 -20.87949,-1.86557 -30.851562,-5.11523 -9.904302,-3.22758 -19.028388,-7.94486 -26.71875,-14.10547 -7.680509,-6.15272 -13.891815,-13.7078 -18.164063,-22.70508 -4.31439,-9.08604 -6.79246,-19.93604 -6.611328,-32.82617 0.184494,-10.35721 2.965254,-19.76591 7.474609,-28.09375 4.690505,-8.66239 11.31132,-16.26295 19.041016,-22.55273 8.129958,-6.61549 17.343224,-11.67058 26.697266,-15.0918 10.047362,-3.67481 20.012582,-5.38612 29.132812,-5.43359 14.48434,-0.0519 26.01696,1.8527 35.0957,4.31054 10.55057,2.8563 18.74882,6.72988 24.89258,10.15235 7.61334,4.24112 14.86251,9.51619 18.40234,11.86718 1.2226,0.812 2.32387,1.51362 3.34961,2.11328 7.54125,4.40877 13.76793,3.745 16.25977,4.32227 0.0974,-1.2752 0.78749,-3.42753 0.99219,-6.36719 0.20103,-2.88696 -0.079,-6.74007 -2.32227,-11.26367 -0.61196,-1.23403 -1.39236,-2.59487 -2.36133,-4.06641 -3.27975,-4.98087 -9.48321,-12.32475 -19.53515,-19.5332 -7.54518,-5.4108 -17.8697,-11.17136 -31.42774,-15.38086 -11.65006,-3.61711 -25.96423,-6.17631 -43.3457,-6.22851 z" />
  </g>
</svg>
